<svg width="24" height="25" viewBox="0 0 24 25" fill="none" xmlns="http://www.w3.org/2000/svg">
<path d="M23.6173 12.3169C23.6173 11.3262 23.5369 10.6032 23.3629 9.85352H12.0498V14.3251H18.6903C18.5565 15.4364 17.8335 17.1099 16.2269 18.2345L16.2044 18.3842L19.7814 21.1552L20.0292 21.18C22.3052 19.078 23.6173 15.9853 23.6173 12.3169Z" fill="#4285F4"/>
<path d="M12.0493 24.098C15.3027 24.098 18.0338 23.0268 20.0287 21.1793L16.2265 18.2338C15.209 18.9434 13.8433 19.4388 12.0493 19.4388C8.86296 19.4388 6.15856 17.3369 5.19451 14.4316L5.0532 14.4436L1.3338 17.3221L1.28516 17.4573C3.2666 21.3935 7.33664 24.098 12.0493 24.098Z" fill="#34A853"/>
<path d="M5.19459 14.4327C4.94022 13.6829 4.79301 12.8796 4.79301 12.0495C4.79301 11.2194 4.94022 10.4162 5.18121 9.66643L5.17447 9.50675L1.40846 6.58203L1.28524 6.64064C0.468594 8.27403 0 10.1083 0 12.0495C0 13.9908 0.468594 15.825 1.28524 17.4584L5.19459 14.4327Z" fill="#FBBC05"/>
<path d="M12.0493 4.65908C14.3119 4.65908 15.8382 5.63642 16.7084 6.45316L20.109 3.13285C18.0205 1.19156 15.3027 0 12.0493 0C7.33664 0 3.2666 2.70441 1.28516 6.64053L5.18113 9.66631C6.15856 6.76107 8.86296 4.65908 12.0493 4.65908Z" fill="#EB4335"/>
</svg>
