<svg width="382" height="509" viewBox="0 0 382 509" fill="none" xmlns="http://www.w3.org/2000/svg">
<mask id="mask0_3253_8778" style="mask-type:luminance" maskUnits="userSpaceOnUse" x="0" y="0" width="382" height="509">
<path d="M381.75 0H0V509H381.75V0Z" fill="white"/>
</mask>
<g mask="url(#mask0_3253_8778)">
<mask id="mask1_3253_8778" style="mask-type:luminance" maskUnits="userSpaceOnUse" x="-6460" y="-6394" width="12789" height="12788">
<path d="M-6459.04 -6393.84H6328.65V6393.84H-6459.04V-6393.84Z" fill="white"/>
</mask>
<g mask="url(#mask1_3253_8778)">
<mask id="mask2_3253_8778" style="mask-type:luminance" maskUnits="userSpaceOnUse" x="-5948" y="-6394" width="12789" height="12788">
<path d="M6840.16 -6393.84H-5947.53V6393.84H6840.16V-6393.84Z" fill="white"/>
</mask>
<g mask="url(#mask2_3253_8778)">
<g opacity="0.5">
<path d="M218.633 87.3194L213.235 90.1912L217.571 98.3405L222.969 95.4688L218.633 87.3194Z" fill="#0D0D80"/>
</g>
</g>
<mask id="mask3_3253_8778" style="mask-type:luminance" maskUnits="userSpaceOnUse" x="-5948" y="-6394" width="12789" height="12788">
<path d="M6840.16 -6393.84H-5947.53V6393.84H6840.16V-6393.84Z" fill="white"/>
</mask>
<g mask="url(#mask3_3253_8778)">
<path d="M339.166 73.867L333.332 75.2755L335.526 84.3588L341.359 82.9502L339.166 73.867Z" fill="#FF9500"/>
</g>
<mask id="mask4_3253_8778" style="mask-type:luminance" maskUnits="userSpaceOnUse" x="-5948" y="-6394" width="12789" height="12788">
<path d="M6840.16 -6393.84H-5947.53V6393.84H6840.16V-6393.84Z" fill="white"/>
</mask>
<g mask="url(#mask4_3253_8778)">
<g opacity="0.5">
<path d="M282.649 58.7037L280.733 60.8992L287.905 67.1565L289.82 64.9609L282.649 58.7037Z" fill="#FF9500"/>
</g>
</g>
<mask id="mask5_3253_8778" style="mask-type:luminance" maskUnits="userSpaceOnUse" x="-5948" y="-6394" width="12789" height="12788">
<path d="M6840.16 -6393.84H-5947.53V6393.84H6840.16V-6393.84Z" fill="white"/>
</mask>
<g mask="url(#mask5_3253_8778)">
<path d="M221.846 69.0616L219.147 70.4975L223.483 78.6468L226.182 77.2109L221.846 69.0616Z" fill="#2AAC7E"/>
</g>
<mask id="mask6_3253_8778" style="mask-type:luminance" maskUnits="userSpaceOnUse" x="-5948" y="-6394" width="12789" height="12788">
<path d="M6840.16 -6393.84H-5947.53V6393.84H6840.16V-6393.84Z" fill="white"/>
</mask>
<g mask="url(#mask6_3253_8778)">
<g opacity="0.5">
<path d="M178.371 31.7849C175.879 30.9203 173.431 31.4434 172.907 32.9525C172.384 34.4615 173.981 36.3887 176.473 37.2534C178.964 38.118 181.412 37.5948 181.936 36.0858C182.46 34.5768 180.862 32.6495 178.371 31.7849Z" fill="#FF3B30"/>
</g>
</g>
<mask id="mask7_3253_8778" style="mask-type:luminance" maskUnits="userSpaceOnUse" x="-5948" y="-6394" width="12789" height="12788">
<path d="M6840.16 -6393.84H-5947.53V6393.84H6840.16V-6393.84Z" fill="white"/>
</mask>
<g mask="url(#mask7_3253_8778)">
<path d="M291.718 138.907C294.107 139.09 296.161 137.751 296.301 135.918C296.442 134.085 294.617 132.447 292.227 132.264C289.838 132.081 287.784 133.42 287.644 135.253C287.503 137.086 289.328 138.723 291.718 138.907Z" fill="#FF9500"/>
</g>
<mask id="mask8_3253_8778" style="mask-type:luminance" maskUnits="userSpaceOnUse" x="-5948" y="-6394" width="12789" height="12788">
<path d="M6840.16 -6393.84H-5947.53V6393.84H6840.16V-6393.84Z" fill="white"/>
</mask>
<g mask="url(#mask8_3253_8778)">
<path d="M312.118 41.0277C310.454 49.2304 302.464 56.6982 303.783 65.0209C305.304 74.6236 318.993 79.3097 320.514 88.9124C321.757 96.7596 313.896 103.925 312.108 111.544" stroke="#FF9500" stroke-width="2.2215" stroke-linecap="round" stroke-linejoin="round"/>
</g>
<mask id="mask9_3253_8778" style="mask-type:luminance" maskUnits="userSpaceOnUse" x="-5948" y="-6394" width="12789" height="12788">
<path d="M6840.16 -6393.84H-5947.53V6393.84H6840.16V-6393.84Z" fill="white"/>
</mask>
<g mask="url(#mask9_3253_8778)">
<path d="M284.608 -15.7107C286.522 -13.0592 287.968 -10.2711 288.135 -7.08553C288.644 2.62362 276.228 10.0534 276.737 19.7626C277.236 29.2808 290.347 35.1154 290.845 44.6336C290.937 46.3755 290.595 48.0382 289.979 49.6513" stroke="#2AAC7E" stroke-width="2.06066" stroke-linecap="round" stroke-linejoin="round"/>
</g>
<mask id="mask10_3253_8778" style="mask-type:luminance" maskUnits="userSpaceOnUse" x="-5948" y="-6394" width="12789" height="12788">
<path d="M6840.16 -6393.84H-5947.53V6393.84H6840.16V-6393.84Z" fill="white"/>
</mask>
<g mask="url(#mask10_3253_8778)">
<g opacity="0.5">
<path d="M242.983 63.7639L246.192 72.6624L251.729 70.6661L248.521 61.7676L242.983 63.7639Z" fill="#2AAC7E"/>
</g>
</g>
<mask id="mask11_3253_8778" style="mask-type:luminance" maskUnits="userSpaceOnUse" x="-5948" y="-6394" width="12789" height="12788">
<path d="M6840.16 -6393.84H-5947.53V6393.84H6840.16V-6393.84Z" fill="white"/>
</mask>
<g mask="url(#mask11_3253_8778)">
<path d="M357.77 75.3768L365.795 80.2335L368.883 75.1302L360.858 70.2734L357.77 75.3768Z" fill="#2AAC7E"/>
</g>
<mask id="mask12_3253_8778" style="mask-type:luminance" maskUnits="userSpaceOnUse" x="-5948" y="-6394" width="12789" height="12788">
<path d="M6840.16 -6393.84H-5947.53V6393.84H6840.16V-6393.84Z" fill="white"/>
</mask>
<g mask="url(#mask12_3253_8778)">
<g opacity="0.5">
<path d="M311.585 62.2179L314.714 65.8038L319.105 61.9726L315.977 58.3867L311.585 62.2179Z" fill="#0D0D80"/>
</g>
</g>
<mask id="mask13_3253_8778" style="mask-type:luminance" maskUnits="userSpaceOnUse" x="-5948" y="-6394" width="12789" height="12788">
<path d="M6840.16 -6393.84H-5947.53V6393.84H6840.16V-6393.84Z" fill="white"/>
</mask>
<g mask="url(#mask13_3253_8778)">
<path d="M248.593 77.6686L252.006 74.5613L247.889 70.0402L244.477 73.1475L248.593 77.6686Z" fill="#FF9500"/>
</g>
<mask id="mask14_3253_8778" style="mask-type:luminance" maskUnits="userSpaceOnUse" x="-5948" y="-6394" width="12789" height="12788">
<path d="M6840.16 -6393.84H-5947.53V6393.84H6840.16V-6393.84Z" fill="white"/>
</mask>
<g mask="url(#mask14_3253_8778)">
<g opacity="0.5">
<path d="M126.678 53.6324C126.394 55.2658 128.223 56.9512 130.762 57.3936C133.3 57.8361 135.592 56.8691 135.877 55.2357C136.161 53.6023 134.332 51.9169 131.793 51.4745C129.255 51.0321 126.963 51.999 126.678 53.6324Z" fill="#0D0D80"/>
</g>
</g>
<mask id="mask15_3253_8778" style="mask-type:luminance" maskUnits="userSpaceOnUse" x="-5948" y="-6394" width="12789" height="12788">
<path d="M6840.16 -6393.84H-5947.53V6393.84H6840.16V-6393.84Z" fill="white"/>
</mask>
<g mask="url(#mask15_3253_8778)">
<path d="M300.136 81.7338C298.55 82.3759 298.031 84.7963 298.978 87.1353C299.925 89.4743 301.982 90.8521 303.568 90.21C305.154 89.5678 305.673 87.1474 304.726 84.8084C303.779 82.4694 301.722 81.0917 300.136 81.7338Z" fill="#FF9500"/>
</g>
<mask id="mask16_3253_8778" style="mask-type:luminance" maskUnits="userSpaceOnUse" x="-5948" y="-6394" width="12789" height="12788">
<path d="M6840.16 -6393.84H-5947.53V6393.84H6840.16V-6393.84Z" fill="white"/>
</mask>
<g mask="url(#mask16_3253_8778)">
<path d="M302.309 -25.7957C299.303 -22.0097 296.534 -18.1825 296.418 -13.6092C296.17 -3.88991 308.782 3.20308 308.534 12.9224C308.292 22.4506 295.343 28.6359 295.1 38.1641C295.078 39.0257 295.161 39.8651 295.331 40.6861" stroke="#2AAC7E" stroke-width="2.10198" stroke-linecap="round" stroke-linejoin="round"/>
</g>
<mask id="mask17_3253_8778" style="mask-type:luminance" maskUnits="userSpaceOnUse" x="-5948" y="-6394" width="12789" height="12788">
<path d="M6840.16 -6393.84H-5947.53V6393.84H6840.16V-6393.84Z" fill="white"/>
</mask>
<g mask="url(#mask17_3253_8778)">
<path d="M299.483 -67.2963C304.52 -61.1606 313.68 -57.384 315.592 -49.7129C317.944 -40.2792 307.174 -30.6169 309.526 -21.1832C311.526 -13.1646 322.304 -9.67362 326.638 -2.8585" stroke="#0D0D80" stroke-width="2.19553" stroke-linecap="round" stroke-linejoin="round"/>
</g>
</g>
<mask id="mask18_3253_8778" style="mask-type:luminance" maskUnits="userSpaceOnUse" x="-6460" y="-6394" width="12789" height="12788">
<path d="M-6459.04 -6393.84H6328.65V6393.84H-6459.04V-6393.84Z" fill="white"/>
</mask>
<g mask="url(#mask18_3253_8778)">
<mask id="mask19_3253_8778" style="mask-type:luminance" maskUnits="userSpaceOnUse" x="-6460" y="-6394" width="12789" height="12788">
<path d="M-6459.03 -6393.84H6328.65V6393.84H-6459.03V-6393.84Z" fill="white"/>
</mask>
<g mask="url(#mask19_3253_8778)">
<g opacity="0.5">
<path d="M162.49 87.3204L167.888 90.1921L163.552 98.3415L158.154 95.4697L162.49 87.3204Z" fill="#0D0D80"/>
</g>
</g>
<mask id="mask20_3253_8778" style="mask-type:luminance" maskUnits="userSpaceOnUse" x="-6460" y="-6394" width="12789" height="12788">
<path d="M-6459.03 -6393.84H6328.65V6393.84H-6459.03V-6393.84Z" fill="white"/>
</mask>
<g mask="url(#mask20_3253_8778)">
<path d="M41.9599 73.867L47.7932 75.2755L45.5999 84.3588L39.7666 82.9502L41.9599 73.867Z" fill="#FF9500"/>
</g>
<mask id="mask21_3253_8778" style="mask-type:luminance" maskUnits="userSpaceOnUse" x="-6460" y="-6394" width="12789" height="12788">
<path d="M-6459.03 -6393.84H6328.65V6393.84H-6459.03V-6393.84Z" fill="white"/>
</mask>
<g mask="url(#mask21_3253_8778)">
<g opacity="0.5">
<path d="M98.4774 58.7056L100.393 60.9012L93.2212 67.1584L91.3057 64.9629L98.4774 58.7056Z" fill="#FF9500"/>
</g>
</g>
<mask id="mask22_3253_8778" style="mask-type:luminance" maskUnits="userSpaceOnUse" x="-6460" y="-6394" width="12789" height="12788">
<path d="M-6459.03 -6393.84H6328.65V6393.84H-6459.03V-6393.84Z" fill="white"/>
</mask>
<g mask="url(#mask22_3253_8778)">
<path d="M159.281 69.0626L161.98 70.4985L157.644 78.6478L154.945 77.2119L159.281 69.0626Z" fill="#2AAC7E"/>
</g>
<mask id="mask23_3253_8778" style="mask-type:luminance" maskUnits="userSpaceOnUse" x="-6460" y="-6394" width="12789" height="12788">
<path d="M-6459.03 -6393.84H6328.65V6393.84H-6459.03V-6393.84Z" fill="white"/>
</mask>
<g mask="url(#mask23_3253_8778)">
<g opacity="0.5">
<path d="M202.745 31.7859C205.236 30.9212 207.684 31.4444 208.208 32.9535C208.732 34.4625 207.134 36.3897 204.643 37.2544C202.151 38.119 199.703 37.5958 199.179 36.0868C198.656 34.5778 200.253 32.6505 202.745 31.7859Z" fill="#FF3B30"/>
</g>
</g>
<mask id="mask24_3253_8778" style="mask-type:luminance" maskUnits="userSpaceOnUse" x="-6460" y="-6394" width="12789" height="12788">
<path d="M-6459.03 -6393.84H6328.65V6393.84H-6459.03V-6393.84Z" fill="white"/>
</mask>
<g mask="url(#mask24_3253_8778)">
<path d="M89.4075 138.908C87.0184 139.091 84.9644 137.752 84.8237 135.919C84.6829 134.086 86.5084 132.448 88.8975 132.265C91.2866 132.082 93.3406 133.421 93.4813 135.254C93.6221 137.087 91.7966 138.724 89.4075 138.908Z" fill="#FF9500"/>
</g>
<mask id="mask25_3253_8778" style="mask-type:luminance" maskUnits="userSpaceOnUse" x="-6460" y="-6394" width="12789" height="12788">
<path d="M-6459.03 -6393.84H6328.65V6393.84H-6459.03V-6393.84Z" fill="white"/>
</mask>
<g mask="url(#mask25_3253_8778)">
<path d="M69.0091 41.0286C70.6735 49.2314 78.663 56.6991 77.3449 65.0218C75.8239 74.6246 62.1347 79.3106 60.6137 88.9134C59.3709 96.7606 67.2316 103.926 69.0195 111.545" stroke="#FF9500" stroke-width="2.2215" stroke-linecap="round" stroke-linejoin="round"/>
</g>
<mask id="mask26_3253_8778" style="mask-type:luminance" maskUnits="userSpaceOnUse" x="-6460" y="-6394" width="12789" height="12788">
<path d="M-6459.03 -6393.84H6328.65V6393.84H-6459.03V-6393.84Z" fill="white"/>
</mask>
<g mask="url(#mask26_3253_8778)">
<path d="M96.5147 -15.7097C94.6009 -13.0582 93.1551 -10.2701 92.9881 -7.08455C92.4793 2.6246 104.895 10.0544 104.386 19.7635C103.887 29.2818 90.7765 35.1163 90.2777 44.6346C90.1864 46.3764 90.5282 48.0392 91.1441 49.6523" stroke="#2AAC7E" stroke-width="2.06066" stroke-linecap="round" stroke-linejoin="round"/>
</g>
<mask id="mask27_3253_8778" style="mask-type:luminance" maskUnits="userSpaceOnUse" x="-6460" y="-6394" width="12789" height="12788">
<path d="M-6459.03 -6393.84H6328.65V6393.84H-6459.03V-6393.84Z" fill="white"/>
</mask>
<g mask="url(#mask27_3253_8778)">
<g opacity="0.5">
<path d="M138.14 63.7649L134.931 72.6634L129.394 70.6671L132.603 61.7686L138.14 63.7649Z" fill="#2AAC7E"/>
</g>
</g>
<mask id="mask28_3253_8778" style="mask-type:luminance" maskUnits="userSpaceOnUse" x="-6460" y="-6394" width="12789" height="12788">
<path d="M-6459.03 -6393.84H6328.65V6393.84H-6459.03V-6393.84Z" fill="white"/>
</mask>
<g mask="url(#mask28_3253_8778)">
<path d="M23.3552 75.3777L15.3304 80.2345L12.2418 75.1312L20.2666 70.2744L23.3552 75.3777Z" fill="#2AAC7E"/>
</g>
<mask id="mask29_3253_8778" style="mask-type:luminance" maskUnits="userSpaceOnUse" x="-6460" y="-6394" width="12789" height="12788">
<path d="M-6459.03 -6393.84H6328.65V6393.84H-6459.03V-6393.84Z" fill="white"/>
</mask>
<g mask="url(#mask29_3253_8778)">
<g opacity="0.5">
<path d="M69.5415 62.2188L66.4128 65.8047L62.0218 61.9736L65.1504 58.3877L69.5415 62.2188Z" fill="#0D0D80"/>
</g>
</g>
<mask id="mask30_3253_8778" style="mask-type:luminance" maskUnits="userSpaceOnUse" x="-6460" y="-6394" width="12789" height="12788">
<path d="M-6459.03 -6393.84H6328.65V6393.84H-6459.03V-6393.84Z" fill="white"/>
</mask>
<g mask="url(#mask30_3253_8778)">
<path d="M132.53 77.6695L129.117 74.5622L133.234 70.0411L136.646 73.1484L132.53 77.6695Z" fill="#FF9500"/>
</g>
<mask id="mask31_3253_8778" style="mask-type:luminance" maskUnits="userSpaceOnUse" x="-6460" y="-6394" width="12789" height="12788">
<path d="M-6459.03 -6393.84H6328.65V6393.84H-6459.03V-6393.84Z" fill="white"/>
</mask>
<g mask="url(#mask31_3253_8778)">
<g opacity="0.5">
<path d="M254.443 53.6334C254.727 55.2668 252.898 56.9522 250.359 57.3946C247.821 57.837 245.529 56.87 245.244 55.2366C244.96 53.6033 246.789 51.9179 249.328 51.4754C251.866 51.033 254.158 52 254.443 53.6334Z" fill="#0D0D80"/>
</g>
</g>
<mask id="mask32_3253_8778" style="mask-type:luminance" maskUnits="userSpaceOnUse" x="-6460" y="-6394" width="12789" height="12788">
<path d="M-6459.03 -6393.84H6328.65V6393.84H-6459.03V-6393.84Z" fill="white"/>
</mask>
<g mask="url(#mask32_3253_8778)">
<path d="M80.989 81.7348C82.575 82.3769 83.0939 84.7973 82.147 87.1363C81.2 89.4753 79.1434 90.8531 77.5574 90.2109C75.9713 89.5688 75.4525 87.1484 76.3994 84.8094C77.3464 82.4704 79.403 81.0926 80.989 81.7348Z" fill="#FF9500"/>
</g>
<mask id="mask33_3253_8778" style="mask-type:luminance" maskUnits="userSpaceOnUse" x="-6460" y="-6394" width="12789" height="12788">
<path d="M-6459.03 -6393.84H6328.65V6393.84H-6459.03V-6393.84Z" fill="white"/>
</mask>
<g mask="url(#mask33_3253_8778)">
<path d="M78.8174 -25.7947C81.8239 -22.0088 84.5923 -18.1816 84.7087 -13.6083C84.956 -3.88893 72.3447 3.20406 72.5921 12.9234C72.8346 22.4516 85.7839 28.6369 86.0264 38.1651C86.0483 39.0267 85.9655 39.866 85.7958 40.6871" stroke="#2AAC7E" stroke-width="2.10198" stroke-linecap="round" stroke-linejoin="round"/>
</g>
<mask id="mask34_3253_8778" style="mask-type:luminance" maskUnits="userSpaceOnUse" x="-6460" y="-6394" width="12789" height="12788">
<path d="M-6459.03 -6393.84H6328.65V6393.84H-6459.03V-6393.84Z" fill="white"/>
</mask>
<g mask="url(#mask34_3253_8778)">
<path d="M81.6373 -67.2963C76.6005 -61.1606 67.4404 -57.384 65.5277 -49.7129C63.1757 -40.2792 73.9457 -30.6169 71.5936 -21.1832C69.5944 -13.1646 58.8159 -9.67362 54.4822 -2.8585" stroke="#0D0D80" stroke-width="2.19553" stroke-linecap="round" stroke-linejoin="round"/>
</g>
</g>
<mask id="mask35_3253_8778" style="mask-type:luminance" maskUnits="userSpaceOnUse" x="-6236" y="-6211" width="12538" height="12538">
<path d="M-6235.25 -6210.8H6301.7V6326.14H-6235.25V-6210.8Z" fill="white"/>
</mask>
<g mask="url(#mask35_3253_8778)">
<mask id="mask36_3253_8778" style="mask-type:luminance" maskUnits="userSpaceOnUse" x="-6324" y="-6261" width="12538" height="12537">
<path d="M-6323.01 -6260.95H6213.94V6276H-6323.01V-6260.95Z" fill="white"/>
</mask>
<g mask="url(#mask36_3253_8778)">
<g opacity="0.5">
<path d="M259.45 164.409L266.258 157.044L273.342 163.592L266.533 170.957L259.45 164.409Z" fill="#0D0D80"/>
</g>
</g>
<mask id="mask37_3253_8778" style="mask-type:luminance" maskUnits="userSpaceOnUse" x="-6324" y="-6261" width="12538" height="12537">
<path d="M-6323.01 -6260.95H6213.94V6276H-6323.01V-6260.95Z" fill="white"/>
</mask>
<g mask="url(#mask37_3253_8778)">
<path d="M244.326 208.274L235.775 213.515L230.709 205.248L239.261 200.008L244.326 208.274Z" fill="#FF9500"/>
</g>
<mask id="mask38_3253_8778" style="mask-type:luminance" maskUnits="userSpaceOnUse" x="-6324" y="-6261" width="12538" height="12537">
<path d="M-6323.01 -6260.95H6213.94V6276H-6323.01V-6260.95Z" fill="white"/>
</mask>
<g mask="url(#mask38_3253_8778)">
<g opacity="0.5">
<path d="M139.731 195.574L143.056 191.82L150.233 198.177L146.908 201.931L139.731 195.574Z" fill="#FF9500"/>
</g>
</g>
<mask id="mask39_3253_8778" style="mask-type:luminance" maskUnits="userSpaceOnUse" x="-6324" y="-6261" width="12538" height="12537">
<path d="M-6323.01 -6260.95H6213.94V6276H-6323.01V-6260.95Z" fill="white"/>
</mask>
<g mask="url(#mask39_3253_8778)">
<path d="M241.129 109.622L237.13 112.226L231.656 103.822L235.655 101.218L241.129 109.622Z" fill="#2AAC7E"/>
</g>
<mask id="mask40_3253_8778" style="mask-type:luminance" maskUnits="userSpaceOnUse" x="-6324" y="-6261" width="12538" height="12537">
<path d="M-6323.01 -6260.95H6213.94V6276H-6323.01V-6260.95Z" fill="white"/>
</mask>
<g mask="url(#mask40_3253_8778)">
<g opacity="0.5">
<path d="M97.9693 209.591C95.879 208.164 95.449 205.149 97.0098 202.864C98.5705 200.578 101.535 199.881 103.625 201.309C105.716 202.736 106.146 205.751 104.585 208.036C103.024 210.322 100.06 211.019 97.9693 209.591Z" fill="#FF3B30"/>
</g>
</g>
<mask id="mask41_3253_8778" style="mask-type:luminance" maskUnits="userSpaceOnUse" x="-6324" y="-6261" width="12538" height="12537">
<path d="M-6323.01 -6260.95H6213.94V6276H-6323.01V-6260.95Z" fill="white"/>
</mask>
<g mask="url(#mask41_3253_8778)">
<path d="M106.229 134.7C104.006 133.238 103.437 130.173 104.958 127.861C106.48 125.549 109.519 124.86 111.742 126.322C113.965 127.785 114.534 130.85 113.013 133.161C111.491 135.473 108.451 136.163 106.229 134.7Z" fill="#FF9500"/>
</g>
<mask id="mask42_3253_8778" style="mask-type:luminance" maskUnits="userSpaceOnUse" x="-6324" y="-6261" width="12538" height="12537">
<path d="M-6323.01 -6260.95H6213.94V6276H-6323.01V-6260.95Z" fill="white"/>
</mask>
<g mask="url(#mask42_3253_8778)">
<path d="M211.897 264.512C209.917 256.469 215.622 246.223 211.504 238.794C211.105 238.074 210.634 237.424 210.105 236.83" stroke="#2AAC7E" stroke-width="1.01427" stroke-linecap="round" stroke-linejoin="round"/>
</g>
<mask id="mask43_3253_8778" style="mask-type:luminance" maskUnits="userSpaceOnUse" x="-6324" y="-6261" width="12538" height="12537">
<path d="M-6323.01 -6260.95H6213.94V6276H-6323.01V-6260.95Z" fill="white"/>
</mask>
<g mask="url(#mask43_3253_8778)">
<path d="M279.463 276.954C279.456 276.915 279.45 276.875 279.443 276.836C277.982 267.606 289.365 259.338 287.903 250.109C287.337 246.534 285.052 243.655 282.352 240.942" stroke="#FF9500" stroke-width="1.30071" stroke-linecap="round" stroke-linejoin="round"/>
</g>
<mask id="mask44_3253_8778" style="mask-type:luminance" maskUnits="userSpaceOnUse" x="-6324" y="-6261" width="12538" height="12537">
<path d="M-6323.01 -6260.95H6213.94V6276H-6323.01V-6260.95Z" fill="white"/>
</mask>
<g mask="url(#mask44_3253_8778)">
<g opacity="0.5">
<path d="M190.321 108.355L181.565 112.217L177.518 103.041L186.273 99.1787L190.321 108.355Z" fill="#0D0D80"/>
</g>
</g>
<mask id="mask45_3253_8778" style="mask-type:luminance" maskUnits="userSpaceOnUse" x="-6324" y="-6261" width="12538" height="12537">
<path d="M-6323.01 -6260.95H6213.94V6276H-6323.01V-6260.95Z" fill="white"/>
</mask>
<g mask="url(#mask45_3253_8778)">
<path d="M147.628 82.2145L143.902 73.0513L153.193 69.2733L156.919 78.4365L147.628 82.2145Z" fill="#2AAC7E"/>
</g>
<mask id="mask46_3253_8778" style="mask-type:luminance" maskUnits="userSpaceOnUse" x="-6324" y="-6261" width="12538" height="12537">
<path d="M-6323.01 -6260.95H6213.94V6276H-6323.01V-6260.95Z" fill="white"/>
</mask>
<g mask="url(#mask46_3253_8778)">
<g opacity="0.5">
<path d="M209.535 138.64L205.155 140.478L201.274 131.23L205.653 129.392L209.535 138.64Z" fill="#0D0D80"/>
</g>
</g>
<mask id="mask47_3253_8778" style="mask-type:luminance" maskUnits="userSpaceOnUse" x="-6324" y="-6261" width="12538" height="12537">
<path d="M-6323.01 -6260.95H6213.94V6276H-6323.01V-6260.95Z" fill="white"/>
</mask>
<g mask="url(#mask47_3253_8778)">
<path d="M227.679 173.946L222.779 173.582L223.523 163.58L228.423 163.944L227.679 173.946Z" fill="#FF9500"/>
</g>
<mask id="mask48_3253_8778" style="mask-type:luminance" maskUnits="userSpaceOnUse" x="-6324" y="-6261" width="12538" height="12537">
<path d="M-6323.01 -6260.95H6213.94V6276H-6323.01V-6260.95Z" fill="white"/>
</mask>
<g mask="url(#mask48_3253_8778)">
<g opacity="0.5">
<path d="M185.504 230.362C186.977 232.705 186.497 235.661 184.432 236.959C182.367 238.258 179.494 237.409 178.021 235.066C176.548 232.723 177.028 229.767 179.093 228.469C181.158 227.17 184.031 228.019 185.504 230.362Z" fill="#0D0D80"/>
</g>
</g>
<mask id="mask49_3253_8778" style="mask-type:luminance" maskUnits="userSpaceOnUse" x="-6324" y="-6261" width="12538" height="12537">
<path d="M-6323.01 -6260.95H6213.94V6276H-6323.01V-6260.95Z" fill="white"/>
</mask>
<g mask="url(#mask49_3253_8778)">
<path d="M198.806 158.429C199.383 161.136 197.767 163.778 195.2 164.325C192.632 164.873 190.079 163.12 189.502 160.413C188.925 157.706 190.541 155.064 193.108 154.516C195.675 153.969 198.228 155.722 198.806 158.429Z" fill="#FF9500"/>
</g>
<mask id="mask50_3253_8778" style="mask-type:luminance" maskUnits="userSpaceOnUse" x="-6324" y="-6261" width="12538" height="12537">
<path d="M-6323.01 -6260.95H6213.94V6276H-6323.01V-6260.95Z" fill="white"/>
</mask>
<g mask="url(#mask50_3253_8778)">
<path d="M272.496 318.344C269.43 313.632 263.274 310.536 259.362 306.174" stroke="#0D0D80" stroke-width="0.758354" stroke-linecap="round" stroke-linejoin="round"/>
</g>
<mask id="mask51_3253_8778" style="mask-type:luminance" maskUnits="userSpaceOnUse" x="-6324" y="-6261" width="12538" height="12537">
<path d="M-6323.01 -6260.95H6213.94V6276H-6323.01V-6260.95Z" fill="white"/>
</mask>
<g mask="url(#mask51_3253_8778)">
<path d="M291.877 406.718C292.806 403.999 293.275 401.287 292.602 398.588C290.703 390.974 281.036 387.319 276.391 381.106" stroke="#2AAC7E" stroke-width="1.12245" stroke-linecap="round" stroke-linejoin="round"/>
</g>
</g>
<mask id="mask52_3253_8778" style="mask-type:luminance" maskUnits="userSpaceOnUse" x="-6221" y="-6211" width="12538" height="12538">
<path d="M-6220.84 -6210.8H6316.11V6326.14H-6220.84V-6210.8Z" fill="white"/>
</mask>
<g mask="url(#mask52_3253_8778)">
<mask id="mask53_3253_8778" style="mask-type:luminance" maskUnits="userSpaceOnUse" x="-5834" y="-6261" width="12538" height="12537">
<path d="M6703.5 -6260.95H-5833.44V6276H6703.5V-6260.95Z" fill="white"/>
</mask>
<g mask="url(#mask53_3253_8778)">
<g opacity="0.5">
<path d="M121.047 164.409L114.239 157.044L107.155 163.592L113.964 170.957L121.047 164.409Z" fill="#0D0D80"/>
</g>
</g>
<mask id="mask54_3253_8778" style="mask-type:luminance" maskUnits="userSpaceOnUse" x="-5834" y="-6261" width="12538" height="12537">
<path d="M6703.5 -6260.95H-5833.44V6276H6703.5V-6260.95Z" fill="white"/>
</mask>
<g mask="url(#mask54_3253_8778)">
<path d="M136.171 208.274L144.722 213.515L149.788 205.248L141.236 200.008L136.171 208.274Z" fill="#FF9500"/>
</g>
<mask id="mask55_3253_8778" style="mask-type:luminance" maskUnits="userSpaceOnUse" x="-5834" y="-6261" width="12538" height="12537">
<path d="M6703.5 -6260.95H-5833.44V6276H6703.5V-6260.95Z" fill="white"/>
</mask>
<g mask="url(#mask55_3253_8778)">
<g opacity="0.5">
<path d="M240.77 195.574L237.445 191.82L230.268 198.177L233.593 201.931L240.77 195.574Z" fill="#FF9500"/>
</g>
</g>
<mask id="mask56_3253_8778" style="mask-type:luminance" maskUnits="userSpaceOnUse" x="-5834" y="-6261" width="12538" height="12537">
<path d="M6703.5 -6260.95H-5833.44V6276H6703.5V-6260.95Z" fill="white"/>
</mask>
<g mask="url(#mask56_3253_8778)">
<path d="M139.368 109.622L143.367 112.226L148.841 103.822L144.842 101.218L139.368 109.622Z" fill="#2AAC7E"/>
</g>
<mask id="mask57_3253_8778" style="mask-type:luminance" maskUnits="userSpaceOnUse" x="-5834" y="-6261" width="12538" height="12537">
<path d="M6703.5 -6260.95H-5833.44V6276H6703.5V-6260.95Z" fill="white"/>
</mask>
<g mask="url(#mask57_3253_8778)">
<g opacity="0.5">
<path d="M282.532 209.589C284.622 208.162 285.052 205.147 283.491 202.862C281.93 200.576 278.966 199.879 276.876 201.307C274.785 202.734 274.355 205.749 275.916 208.034C277.477 210.32 280.441 211.017 282.532 209.589Z" fill="#FF3B30"/>
</g>
</g>
<mask id="mask58_3253_8778" style="mask-type:luminance" maskUnits="userSpaceOnUse" x="-5834" y="-6261" width="12538" height="12537">
<path d="M6703.5 -6260.95H-5833.44V6276H6703.5V-6260.95Z" fill="white"/>
</mask>
<g mask="url(#mask58_3253_8778)">
<path d="M274.269 134.7C276.492 133.238 277.061 130.173 275.54 127.861C274.019 125.549 270.979 124.86 268.756 126.322C266.533 127.785 265.964 130.85 267.485 133.161C269.007 135.473 272.047 136.163 274.269 134.7Z" fill="#FF9500"/>
</g>
<mask id="mask59_3253_8778" style="mask-type:luminance" maskUnits="userSpaceOnUse" x="-5834" y="-6261" width="12538" height="12537">
<path d="M6703.5 -6260.95H-5833.44V6276H6703.5V-6260.95Z" fill="white"/>
</mask>
<g mask="url(#mask59_3253_8778)">
<path d="M168.604 264.511C170.585 256.468 164.88 246.222 168.998 238.793C169.397 238.073 169.867 237.423 170.397 236.829" stroke="#2AAC7E" stroke-width="1.01427" stroke-linecap="round" stroke-linejoin="round"/>
</g>
<mask id="mask60_3253_8778" style="mask-type:luminance" maskUnits="userSpaceOnUse" x="-5834" y="-6261" width="12538" height="12537">
<path d="M6703.5 -6260.95H-5833.44V6276H6703.5V-6260.95Z" fill="white"/>
</mask>
<g mask="url(#mask60_3253_8778)">
<path d="M101.035 276.952C101.042 276.913 101.048 276.873 101.055 276.834C102.517 267.604 91.1328 259.337 92.5946 250.107C93.1608 246.532 95.4465 243.653 98.1464 240.94" stroke="#FF9500" stroke-width="1.30071" stroke-linecap="round" stroke-linejoin="round"/>
</g>
<mask id="mask61_3253_8778" style="mask-type:luminance" maskUnits="userSpaceOnUse" x="-5834" y="-6261" width="12538" height="12537">
<path d="M6703.5 -6260.95H-5833.44V6276H6703.5V-6260.95Z" fill="white"/>
</mask>
<g mask="url(#mask61_3253_8778)">
<g opacity="0.5">
<path d="M190.178 108.355L198.934 112.217L202.981 103.041L194.226 99.1787L190.178 108.355Z" fill="#0D0D80"/>
</g>
</g>
<mask id="mask62_3253_8778" style="mask-type:luminance" maskUnits="userSpaceOnUse" x="-5834" y="-6261" width="12538" height="12537">
<path d="M6703.5 -6260.95H-5833.44V6276H6703.5V-6260.95Z" fill="white"/>
</mask>
<g mask="url(#mask62_3253_8778)">
<path d="M232.87 82.2136L236.596 73.0503L227.305 69.2723L223.579 78.4355L232.87 82.2136Z" fill="#2AAC7E"/>
</g>
<mask id="mask63_3253_8778" style="mask-type:luminance" maskUnits="userSpaceOnUse" x="-5834" y="-6261" width="12538" height="12537">
<path d="M6703.5 -6260.95H-5833.44V6276H6703.5V-6260.95Z" fill="white"/>
</mask>
<g mask="url(#mask63_3253_8778)">
<g opacity="0.5">
<path d="M170.961 138.64L175.341 140.478L179.222 131.23L174.843 129.392L170.961 138.64Z" fill="#0D0D80"/>
</g>
</g>
<mask id="mask64_3253_8778" style="mask-type:luminance" maskUnits="userSpaceOnUse" x="-5834" y="-6261" width="12538" height="12537">
<path d="M6703.5 -6260.95H-5833.44V6276H6703.5V-6260.95Z" fill="white"/>
</mask>
<g mask="url(#mask64_3253_8778)">
<path d="M152.825 173.945L157.724 173.581L156.98 163.579L152.081 163.943L152.825 173.945Z" fill="#FF9500"/>
</g>
<mask id="mask65_3253_8778" style="mask-type:luminance" maskUnits="userSpaceOnUse" x="-5834" y="-6261" width="12538" height="12537">
<path d="M6703.5 -6260.95H-5833.44V6276H6703.5V-6260.95Z" fill="white"/>
</mask>
<g mask="url(#mask65_3253_8778)">
<g opacity="0.5">
<path d="M194.992 230.363C193.519 232.706 193.999 235.662 196.064 236.96C198.129 238.259 201.002 237.41 202.475 235.067C203.948 232.724 203.468 229.768 201.403 228.47C199.338 227.171 196.465 228.02 194.992 230.363Z" fill="#0D0D80"/>
</g>
</g>
<mask id="mask66_3253_8778" style="mask-type:luminance" maskUnits="userSpaceOnUse" x="-5834" y="-6261" width="12538" height="12537">
<path d="M6703.5 -6260.95H-5833.44V6276H6703.5V-6260.95Z" fill="white"/>
</mask>
<g mask="url(#mask66_3253_8778)">
<path d="M181.691 158.429C181.114 161.136 182.73 163.778 185.297 164.325C187.865 164.873 190.418 163.12 190.995 160.413C191.572 157.706 189.956 155.064 187.389 154.516C184.822 153.969 182.269 155.722 181.691 158.429Z" fill="#FF9500"/>
</g>
<mask id="mask67_3253_8778" style="mask-type:luminance" maskUnits="userSpaceOnUse" x="-5834" y="-6261" width="12538" height="12537">
<path d="M6703.5 -6260.95H-5833.44V6276H6703.5V-6260.95Z" fill="white"/>
</mask>
<g mask="url(#mask67_3253_8778)">
<path d="M108.001 318.344C111.068 313.632 117.223 310.536 121.135 306.174" stroke="#0D0D80" stroke-width="0.758354" stroke-linecap="round" stroke-linejoin="round"/>
</g>
<mask id="mask68_3253_8778" style="mask-type:luminance" maskUnits="userSpaceOnUse" x="-5834" y="-6261" width="12538" height="12537">
<path d="M6703.5 -6260.95H-5833.44V6276H6703.5V-6260.95Z" fill="white"/>
</mask>
<g mask="url(#mask68_3253_8778)">
<path d="M88.6194 406.719C87.6899 404 87.2215 401.288 87.8943 398.589C89.7927 390.975 99.4597 387.32 104.105 381.107" stroke="#2AAC7E" stroke-width="1.12245" stroke-linecap="round" stroke-linejoin="round"/>
</g>
</g>
</g>
</svg>
