<svg width="124" height="124" viewBox="0 0 124 124" fill="none" xmlns="http://www.w3.org/2000/svg">
<circle opacity="0.04" cx="62" cy="62" r="62" fill="#25A0E3"/>
<circle opacity="0.08" cx="62" cy="62" r="48.4375" fill="#25A0E3"/>
<mask id="mask0_3253_9248" style="mask-type:alpha" maskUnits="userSpaceOnUse" x="17" y="17" width="90" height="90">
<rect x="17.4375" y="17.4375" width="89.125" height="89.125" fill="#D9D9D9"/>
</mask>
<g mask="url(#mask0_3253_9248)">
<path d="M56.8007 68.684L48.8166 60.6999C48.1358 60.0191 47.2693 59.6787 46.2171 59.6787C45.165 59.6787 44.2985 60.0191 43.6176 60.6999C42.9368 61.3808 42.5964 62.2472 42.5964 63.2994C42.5964 64.3516 42.9368 65.2181 43.6176 65.8989L54.2012 76.4825C54.9439 77.2252 55.8104 77.5965 56.8007 77.5965C57.791 77.5965 58.6575 77.2252 59.4002 76.4825L80.3817 55.501C81.0625 54.8202 81.4029 53.9537 81.4029 52.9015C81.4029 51.8493 81.0625 50.9828 80.3817 50.302C79.7009 49.6212 78.8344 49.2808 77.7822 49.2808C76.7301 49.2808 75.8636 49.6212 75.1827 50.302L56.8007 68.684ZM61.9997 99.1351C56.8626 99.1351 52.035 98.1603 47.5169 96.2107C42.9987 94.2611 39.0686 91.6152 35.7264 88.273C32.3842 84.9308 29.7383 81.0006 27.7887 76.4825C25.8391 71.9643 24.8643 67.1367 24.8643 61.9997C24.8643 56.8626 25.8391 52.035 27.7887 47.5169C29.7383 42.9987 32.3842 39.0686 35.7264 35.7264C39.0686 32.3842 42.9987 29.7383 47.5169 27.7887C52.035 25.8391 56.8626 24.8643 61.9997 24.8643C67.1367 24.8643 71.9643 25.8391 76.4825 27.7887C81.0006 29.7383 84.9308 32.3842 88.273 35.7264C91.6152 39.0686 94.2611 42.9987 96.2107 47.5169C98.1603 52.035 99.1351 56.8626 99.1351 61.9997C99.1351 67.1367 98.1603 71.9643 96.2107 76.4825C94.2611 81.0006 91.6152 84.9308 88.273 88.273C84.9308 91.6152 81.0006 94.2611 76.4825 96.2107C71.9643 98.1603 67.1367 99.1351 61.9997 99.1351Z" fill="#25A0E3"/>
</g>
</svg>
